# xmcd CD database file
#
# Track frame offsets:
#	150
#	15575
#	43055
#	58890
#	87885
#	103340
#	130032
#	152582
#	184187
#	210322
#
# Disc length: 3085 seconds
#
# Revision: 0
# Processed by: cddbd v1.5.1PL2 Copyright (c) Steve Scherf et al.
# Submitted via: CDex 1.51
#
DISCID=800c0b0a
DTITLE=Jeff Parker - The Relatives
DYEAR=2004
DGENRE=Jazz
TTITLE0=Istanbul
TTITLE1=Mannerism
TTITLE2=Sea Change
TTITLE3=When Did You Stop Loving Me, When Did I Stop Loving You
TTITLE4=Beanstalk
TTITLE5=Te Relatives
TTITLE6=Toy Boat
TTITLE7=Rang (For Michel Zerang)
TTITLE8=Where'd You Get These
TTITLE9=Sea Change (Vicissitude Version)
EXTD=YEAR: 2004
EXTT0=
EXTT1=
EXTT2=
EXTT3=
EXTT4=
EXTT5=
EXTT6=
EXTT7=
EXTT8=
EXTT9=
PLAYORDER=
